<svg width="40" height="40" xmlns="http://www.w3.org/2000/svg" fill="none">

 <g>
  <title>Layer 1</title>
  <path id="svg_10" fill="#243A5A" class="ccustom" d="m0,20c0,-9.4281 0,-14.14214 2.92893,-17.07107c2.92893,-2.92893 7.64297,-2.92893 17.07107,-2.92893c9.4281,0 14.1421,0 17.0711,2.92893c2.9289,2.92893 2.9289,7.64297 2.9289,17.07107c0,9.4281 0,14.1421 -2.9289,17.0711c-2.929,2.9289 -7.643,2.9289 -17.0711,2.9289c-9.4281,0 -14.14214,0 -17.07107,-2.9289c-2.92893,-2.929 -2.92893,-7.643 -2.92893,-17.0711z"/>
  <path id="svg_11" fill="#2DF8BB" class="ccompli2" d="m24,26c0.5523,0 1.0101,0.4521 0.9004,0.9934c-0.1939,0.956 -0.6649,1.8421 -1.3649,2.5421c-0.9376,0.9377 -2.2094,1.4645 -3.5355,1.4645c-1.3261,0 -2.5978,-0.5268 -3.5355,-1.4645c-0.7,-0.7 -1.171,-1.5861 -1.3648,-2.5421c-0.1098,-0.5413 0.348,-0.9934 0.9003,-0.9934l8,0z"/>
  <path id="svg_12" fill="#2DF8BB" class="ccompli2" d="m26.1023,17.7765c-0.5335,0.1429 -0.8602,0.701 -0.5897,1.1825c0.2847,0.5068 0.6785,0.9491 1.1576,1.2924c0.7522,0.539 1.668,0.8006 2.5915,0.74c0.9234,-0.0605 1.7973,-0.4393 2.4727,-1.0719c0.6755,-0.6326 1.1106,-1.4799 1.2314,-2.3974c0.1208,-0.9175 -0.0802,-1.8485 -0.5689,-2.6344c-0.4887,-0.7858 -1.2348,-1.3779 -2.1111,-1.6754c-0.8763,-0.2975 -1.8286,-0.2819 -2.6947,0.0441c-0.5516,0.2076 -1.0464,0.5329 -1.4526,0.9487c-0.3859,0.3951 -0.2148,1.0188 0.2635,1.2949l0.5073,0.2929c0.7715,0.4455 0.6194,1.6014 -0.2412,1.832l-0.5658,0.1516z"/>
  <path id="svg_13" fill="#2DF8BB" class="ccompli2" d="m13.8978,17.7765c0.5335,0.1429 0.8602,0.701 0.5897,1.1825c-0.2847,0.5068 -0.6785,0.9491 -1.1575,1.2924c-0.7522,0.539 -1.6681,0.8006 -2.5915,0.74c-0.92348,-0.0605 -1.79737,-0.4393 -2.4728,-1.0719c-0.67543,-0.6326 -1.11062,-1.4799 -1.23141,-2.3974c-0.12079,-0.9175 0.08028,-1.8485 0.56897,-2.6344c0.48868,-0.7858 1.23474,-1.3779 2.11105,-1.6754c0.87629,-0.2975 1.82869,-0.2819 2.69479,0.0441c0.5515,0.2076 1.0464,0.5329 1.4526,0.9487c0.3859,0.3951 0.2147,1.0188 -0.2636,1.2949l-0.5073,0.2929c-0.7715,0.4455 -0.6193,1.6014 0.2412,1.832l0.5658,0.1516z"/>
 </g>
</svg>