<svg xmlns="http://www.w3.org/2000/svg" version="1.1" xmlns:xlink="http://www.w3.org/1999/xlink" width="512" height="512" x="0" y="0" viewBox="0 0 32 32" style="enable-background:new 0 0 512 512" xml:space="preserve" class=""><g><linearGradient id="a"><stop offset="0" stop-color="#eaeaea"></stop><stop offset="1" stop-color="#c6c6c6"></stop></linearGradient><linearGradient xlink:href="#a" id="c" x1="30.818" x2="24.848" y1="21.31" y2="18.904" gradientUnits="userSpaceOnUse"></linearGradient><linearGradient id="b"><stop offset="0" stop-color="#fff533"></stop><stop offset="1" stop-color="#eaa12a"></stop></linearGradient><linearGradient xlink:href="#b" id="d" x1="26.213" x2="23.581" y1="8.153" y2="8.153" gradientUnits="userSpaceOnUse"></linearGradient><linearGradient xlink:href="#b" id="e" x1="26.035" x2="23.717" y1="17.352" y2="17.352" gradientUnits="userSpaceOnUse"></linearGradient><linearGradient id="f" x1="3.753" x2="26.386" y1="5.158" y2="27.79" gradientUnits="userSpaceOnUse"><stop offset="0" stop-color="#ff6529"></stop><stop offset="1" stop-color="#b72020"></stop></linearGradient><linearGradient xlink:href="#b" id="g" x1="9.234" x2="15.208" y1="4.682" y2="10.656" gradientUnits="userSpaceOnUse"></linearGradient><linearGradient xlink:href="#a" id="h" x1="9.128" x2="20.061" y1="13.515" y2="13.515" gradientUnits="userSpaceOnUse"></linearGradient><linearGradient xlink:href="#a" id="i" x1="9.128" x2="20.061" y1="16.515" y2="16.515" gradientUnits="userSpaceOnUse"></linearGradient><linearGradient xlink:href="#a" id="j" x1="9.128" x2="20.061" y1="19.515" y2="19.515" gradientUnits="userSpaceOnUse"></linearGradient><linearGradient xlink:href="#a" id="k" x1="9.128" x2="20.061" y1="22.515" y2="22.515" gradientUnits="userSpaceOnUse"></linearGradient><path fill="url(#c)" d="M23.71 27.946h-3.812V7.812h4.812v19.134a1 1 0 0 1-1 1z" opacity="1" data-original="url(#c)"></path><path fill="url(#d)" d="M24.512 12.252h-4.614V4.054h4.614a1 1 0 0 1 1 1v6.198a1 1 0 0 1-1 1z" opacity="1" data-original="url(#d)"></path><path fill="url(#e)" d="M24.512 21.45h-4.614v-8.198h4.614a1 1 0 0 1 1 1v6.198a1 1 0 0 1-1 1z" opacity="1" data-original="url(#e)"></path><path fill="url(#f)" d="M7.722 3a2 2 0 0 0-2 2v22a2 2 0 0 0 2 2h13.747a2 2 0 0 0 2-2V5a2 2 0 0 0-2-2h-7.294l-2.523.609L9.128 3z" opacity="1" data-original="url(#f)" class=""></path><path fill="url(#g)" d="m14.174 11.198-2.523-2.733-2.523 2.733V3h5.046z" opacity="1" data-original="url(#g)" class=""></path><path fill="url(#h)" d="M9.128 13.015h10.933v1H9.128z" opacity="1" data-original="url(#h)"></path><path fill="url(#i)" d="M9.128 16.015h10.933v1H9.128z" opacity="1" data-original="url(#i)"></path><path fill="url(#j)" d="M9.128 19.015h10.933v1H9.128z" opacity="1" data-original="url(#j)"></path><path fill="url(#k)" d="M9.128 22.015h10.933v1H9.128z" opacity="1" data-original="url(#k)"></path></g></svg>