<svg id="logo" xmlns="http://www.w3.org/2000/svg" viewBox="0 0 154.47 34.06"><defs><style>.a{fill:#243a5a;}.b{fill:#2df8bb;}</style></defs><title>Logo Dark</title><path class="a" d="M54.7,24.29h5.36v3h-8.8V12.42H54.7Z" transform="translate(-13.96 -3.64)"/><path class="a" d="M71.14,22.56H63.49a2.31,2.31,0,0,0,.66,1.58,2,2,0,0,0,1.44.54,1.77,1.77,0,0,0,1.75-1.07h3.6a4.87,4.87,0,0,1-1,2,5,5,0,0,1-1.81,1.36,6.32,6.32,0,0,1-5.31-.2,5,5,0,0,1-2-2,6.17,6.17,0,0,1-.71-3,6.27,6.27,0,0,1,.7-3,4.85,4.85,0,0,1,2-2,5.84,5.84,0,0,1,2.9-.7,6,6,0,0,1,2.85.67,4.87,4.87,0,0,1,2,1.92,5.91,5.91,0,0,1,.7,2.91A8.44,8.44,0,0,1,71.14,22.56Zm-3.4-1.87a1.78,1.78,0,0,0-.59-1.39,2.21,2.21,0,0,0-1.49-.51,2.14,2.14,0,0,0-1.43.49,2.19,2.19,0,0,0-.72,1.41Z" transform="translate(-13.96 -3.64)"/><path class="a" d="M72.45,18.75a4.74,4.74,0,0,1,1.75-2,4.5,4.5,0,0,1,2.47-.7,4.22,4.22,0,0,1,2,.48,3.52,3.52,0,0,1,1.35,1.24V16.24h3.38v11H80.07V25.71A3.74,3.74,0,0,1,78.7,27a4.22,4.22,0,0,1-2,.47,4.48,4.48,0,0,1-2.45-.7,4.8,4.8,0,0,1-1.75-2,6.63,6.63,0,0,1-.64-3A6.57,6.57,0,0,1,72.45,18.75Zm6.92,1A2.28,2.28,0,0,0,77.66,19a2.3,2.3,0,0,0-1.71.72,2.71,2.71,0,0,0-.7,2,2.78,2.78,0,0,0,.7,2,2.36,2.36,0,0,0,3.42,0,2.76,2.76,0,0,0,.7-2A2.75,2.75,0,0,0,79.37,19.76Z" transform="translate(-13.96 -3.64)"/><path class="a" d="M89.59,16.65a3.86,3.86,0,0,1,2-.53V19.7h-.93a2.89,2.89,0,0,0-1.9.54,2.44,2.44,0,0,0-.63,1.91v5.12H84.73v-11h3.38v1.84A4.48,4.48,0,0,1,89.59,16.65Z" transform="translate(-13.96 -3.64)"/><path class="a" d="M102.51,17.38a4.88,4.88,0,0,1,1.15,3.45v6.44H100.3v-6a2.43,2.43,0,0,0-.57-1.72,2.25,2.25,0,0,0-3.08,0,2.43,2.43,0,0,0-.57,1.72v6H92.7v-11h3.38V17.7a3.56,3.56,0,0,1,1.38-1.15,4.31,4.31,0,0,1,2-.43A4,4,0,0,1,102.51,17.38Z" transform="translate(-13.96 -3.64)"/><path class="a" d="M105.23,14.57a1.71,1.71,0,0,1-.56-1.29,1.74,1.74,0,0,1,.56-1.32,2.27,2.27,0,0,1,2.89,0,1.74,1.74,0,0,1,.56,1.32,1.71,1.71,0,0,1-.56,1.29,2.23,2.23,0,0,1-2.89,0Zm3.13,1.67v11H105v-11Z" transform="translate(-13.96 -3.64)"/><path class="a" d="M119.46,17.38a4.88,4.88,0,0,1,1.16,3.45v6.44h-3.36v-6a2.39,2.39,0,0,0-.58-1.72,2.25,2.25,0,0,0-3.08,0,2.43,2.43,0,0,0-.57,1.72v6h-3.38v-11H113V17.7a3.56,3.56,0,0,1,1.38-1.15,4.31,4.31,0,0,1,2-.43A4,4,0,0,1,119.46,17.38Z" transform="translate(-13.96 -3.64)"/><path class="a" d="M128.71,16.56a3.45,3.45,0,0,1,1.35,1.24V16.24h3.38v11a6.2,6.2,0,0,1-.6,2.75A4.59,4.59,0,0,1,131,32a5.91,5.91,0,0,1-3.07.73,6.37,6.37,0,0,1-4-1.15,4.34,4.34,0,0,1-1.74-3.14h3.34a1.56,1.56,0,0,0,.75,1,2.75,2.75,0,0,0,1.46.37,2.27,2.27,0,0,0,1.67-.61,2.59,2.59,0,0,0,.62-1.92V25.69a3.74,3.74,0,0,1-1.36,1.25,4.16,4.16,0,0,1-2,.48,4.5,4.5,0,0,1-2.47-.7,4.8,4.8,0,0,1-1.75-2,6.76,6.76,0,0,1-.64-3,6.7,6.7,0,0,1,.64-3,4.74,4.74,0,0,1,1.75-2,4.5,4.5,0,0,1,2.47-.7A4.22,4.22,0,0,1,128.71,16.56Zm.65,3.2a2.28,2.28,0,0,0-1.71-.73,2.3,2.3,0,0,0-1.71.72,2.71,2.71,0,0,0-.7,2,2.78,2.78,0,0,0,.7,2,2.36,2.36,0,0,0,3.42,0,2.76,2.76,0,0,0,.7-2A2.75,2.75,0,0,0,129.36,19.76Z" transform="translate(-13.96 -3.64)"/><path class="a" d="M139.34,24.29h5.36v3h-8.81V12.42h3.45Z" transform="translate(-13.96 -3.64)"/><path class="a" d="M147.47,26.73a5.15,5.15,0,0,1-2-2,6,6,0,0,1-.74-3,5.85,5.85,0,0,1,.75-3,5.1,5.1,0,0,1,2.06-2,6.46,6.46,0,0,1,5.85,0,5.07,5.07,0,0,1,2.05,2,5.85,5.85,0,0,1,.75,3,5.79,5.79,0,0,1-.76,3,5.12,5.12,0,0,1-2.07,2,6.13,6.13,0,0,1-2.94.69A6,6,0,0,1,147.47,26.73ZM152,23.79a2.8,2.8,0,0,0,.69-2,2.83,2.83,0,0,0-.67-2,2.25,2.25,0,0,0-3.27,0,2.92,2.92,0,0,0-.65,2,3,3,0,0,0,.64,2,2.1,2.1,0,0,0,1.61.71A2.2,2.2,0,0,0,152,23.79Z" transform="translate(-13.96 -3.64)"/><path class="a" d="M163.69,16.56a3.48,3.48,0,0,1,1.36,1.24V16.24h3.38v11a6.2,6.2,0,0,1-.61,2.75A4.54,4.54,0,0,1,166,32a5.89,5.89,0,0,1-3.07.73,6.39,6.39,0,0,1-4-1.15,4.41,4.41,0,0,1-1.74-3.14h3.34a1.63,1.63,0,0,0,.75,1,2.77,2.77,0,0,0,1.46.37,2.26,2.26,0,0,0,1.67-.61,2.55,2.55,0,0,0,.63-1.92V25.69a3.77,3.77,0,0,1-1.37,1.25,4.14,4.14,0,0,1-2,.48,4.48,4.48,0,0,1-2.47-.7,4.8,4.8,0,0,1-1.75-2,6.63,6.63,0,0,1-.64-3,6.57,6.57,0,0,1,.64-3,4.74,4.74,0,0,1,1.75-2,4.48,4.48,0,0,1,2.47-.7A4.18,4.18,0,0,1,163.69,16.56Zm.65,3.2a2.24,2.24,0,0,0-1.7-.73,2.27,2.27,0,0,0-1.71.72,2.71,2.71,0,0,0-.71,2,2.79,2.79,0,0,0,.71,2,2.35,2.35,0,0,0,3.41,0,2.76,2.76,0,0,0,.71-2A2.75,2.75,0,0,0,164.34,19.76Z" transform="translate(-13.96 -3.64)"/><path class="a" d="M14,20.67c0-8,0-12,2.49-14.54S23,3.64,31,3.64s12,0,14.54,2.49S48,12.64,48,20.67s0,12-2.49,14.54S39,37.7,31,37.7s-12,0-14.54-2.49S14,28.7,14,20.67Z" transform="translate(-13.96 -3.64)"/><path class="b" d="M34.4,25.78a.73.73,0,0,1,.76.85A4.21,4.21,0,0,1,34,28.79a4.25,4.25,0,0,1-6,0,4.21,4.21,0,0,1-1.16-2.16.73.73,0,0,1,.76-.85Z" transform="translate(-13.96 -3.64)"/><path class="b" d="M36.19,18.78a.7.7,0,0,0-.51,1,3.47,3.47,0,0,0,1,1.1A3.41,3.41,0,0,0,42,18.56a3.4,3.4,0,0,0-4.58-3.63,3.28,3.28,0,0,0-1.23.8.71.71,0,0,0,.22,1.11l.43.25a.85.85,0,0,1-.2,1.56Z" transform="translate(-13.96 -3.64)"/><path class="b" d="M25.79,18.78a.69.69,0,0,1,.5,1,3.39,3.39,0,0,1-3.19,1.73,3.4,3.4,0,1,1,1.42-6.58,3.32,3.32,0,0,1,1.24.8.72.72,0,0,1-.22,1.11l-.43.25a.85.85,0,0,0,.2,1.56Z" transform="translate(-13.96 -3.64)"/></svg>